<?xml version="1.0" encoding="UTF-8" standalone="no"?>
<!-- Created with Inkscape (http://www.inkscape.org/) -->
<svg
   xmlns:svg="http://www.w3.org/2000/svg"
   xmlns="http://www.w3.org/2000/svg"
   version="1.0"
   width="1183"
   height="404"
   id="svg1953">
  <defs
     id="defs1956" />
  <path
     d="M 1113.0275,396.1773 C 1107.5935,394.0949 1104,389.26753 1104,384.05003 L 1104,380.39583 L 1112.249,381.32057 C 1118.9434,382.07104 1120.9132,382.69334 1122.7013,384.62266 C 1124.2067,386.24705 1126.0052,387 1128.3797,387 C 1133.446,387 1136,383.37721 1136,376.19083 L 1136,370.65137 L 1133.75,372.75907 C 1128.7831,377.41186 1119.6421,378.38853 1112.9613,374.98025 C 1103.1,369.9494 1099.3957,354.26702 1105.0111,341.32267 C 1109.4464,331.09867 1124.9158,328.00959 1133.8852,335.55683 L 1136.8613,338.06105 L 1137.1806,335.28052 C 1137.498,332.51761 1137.5523,332.49816 1145.75,332.20956 L 1154,331.91912 L 1153.978,357.20956 C 1153.9586,379.58168 1153.7442,382.96634 1152.1203,386.54137 C 1149.8801,391.47325 1145.1934,395.57445 1140.2189,396.95599 C 1134.2426,398.61578 1118.1912,398.15611 1113.0275,396.1773 z M 1133.9274,362.36514 C 1135.3892,360.50682 1136,358.27378 1136,354.78822 C 1136,350.65927 1135.5191,349.36522 1133.0769,346.92308 C 1129.643,343.48916 1127.2216,343.25125 1123.7221,346.00397 C 1119.1739,349.58158 1119.241,361.28724 1123.825,363.96188 C 1127.1198,365.88429 1131.7328,365.15519 1133.9274,362.36514 z M 733,364.45956 L 733,331.91912 L 741.25,332.20956 C 749.44775,332.49816 749.50202,332.51761 749.81937,335.28052 L 750.13874,338.06105 L 753.11484,335.55683 C 761.24028,328.71972 774.29862,330.63205 779.65507,339.44353 C 782.98235,344.91697 783.8471,348.39001 783.90196,356.5 C 783.9405,362.19761 783.43198,365.65366 782.13502,368.50858 C 780.05648,373.08394 774.16856,378.66861 770.43547,379.60555 C 765.81599,380.76497 757.11243,379.45924 753.96903,377.13522 L 751,374.94013 L 751,385.97006 L 751,397 L 742,397 L 733,397 L 733,364.45956 z M 763.92742,364.36514 C 765.47653,362.39577 766,360.28298 766,356 C 766,351.71702 765.47653,349.60423 763.92742,347.63486 C 761.35719,344.36734 756.1867,344.03123 753.53672,346.95942 C 751.56383,349.13944 750.40292,356.4849 751.40209,360.46592 C 753.03337,366.96545 760.14144,369.17824 763.92742,364.36514 z M 300.30433,378.044 C 294.16006,374.2976 291.79773,367.81321 294.35094,361.7025 C 296.41676,356.75831 300.32617,354.63131 311.8629,352.17475 C 324.53132,349.4772 327,348.49418 327,346.1472 C 327,342.98241 324.43613,341.69074 319.30274,342.26934 C 315.16516,342.73571 312.96783,344.11195 311.78606,346.9772 C 311.62873,347.35866 307.7557,347.22718 303.17934,346.685 C 295.0255,345.719 294.87102,345.65004 295.47453,343.24546 C 296.54975,338.96143 299.02974,336.16459 303.83283,333.81926 C 307.88335,331.84142 310.02266,331.54446 320.02431,331.5717 C 329.90447,331.5986 332.21426,331.92531 336.2142,333.86165 C 343.69007,337.48065 345,341.26607 345,359.25062 C 345,367.29117 345.4455,375.04155 345.99,376.47369 L 346.97999,379.07757 L 338.24,378.78879 C 330.03941,378.51782 329.48028,378.36113 329.18045,376.25 C 328.8383,373.84091 327.54901,373.30267 326.43565,375.10413 C 323.5413,379.78728 306.33766,381.72276 300.30433,378.044 z M 322.31574,368.83666 C 325.65108,367.06024 326.93329,364.85684 326.9682,360.84167 L 327,357.18335 L 320.81276,359.05669 C 312.84054,361.47049 310.19445,363.9366 311.79873,367.45761 C 312.72613,369.49302 313.67245,370 316.5443,370 C 318.51725,370 321.1144,369.4765 322.31574,368.83666 z M 368.74797,378.57325 C 358.73765,375.00092 354,367.74947 354,356 C 354,339.39135 363.43124,331.32553 382.5,331.6261 C 394.51607,331.81551 400.95248,335.12752 405.1277,343.26972 C 407.38074,347.66342 407.59667,347.51272 397.25949,348.76089 C 390.68671,349.55453 389.96546,349.46652 389.43862,347.80661 C 389.11942,346.80091 387.46709,345.25866 385.76677,344.37939 C 383.2156,343.06013 382.00556,342.98137 378.84346,343.92875 C 374.011,345.3766 372,349.0336 372,356.37361 C 372,360.80257 372.49384,362.43344 374.58889,364.92327 C 376.72953,367.46728 377.91126,368 381.41393,368 C 385.57652,368 387.46113,366.88391 390.29596,362.73992 C 391.37797,361.15823 392.30196,361.08182 399.41276,361.98601 C 403.76477,362.5394 407.50866,363.17533 407.73252,363.39918 C 407.95637,363.62304 407.22119,365.60627 406.09878,367.80637 C 403.59185,372.72036 398.1509,377.33861 393.07772,378.85857 C 387.93853,380.39831 373.38383,380.22762 368.74797,378.57325 z M 428.88603,378.43975 C 413.76163,373.78196 408.8256,351.73862 420.15481,339.44788 C 425.49625,333.6531 431.29458,331.50804 441.5,331.55135 C 450.89899,331.59123 455.87636,333.07454 460.63685,337.2543 C 464.34665,340.51155 467.56057,345.76407 466.50395,346.84293 C 466.15001,347.20432 462.62933,347.96804 458.68021,348.54009 L 451.5,349.58017 L 448.87858,346.56281 C 445.27099,342.41034 439.25317,342.29228 435.25,346.29545 C 432.76907,348.77638 432.5,349.73662 432.5,356.10931 C 432.5,362.60926 432.72398,363.36583 435.30576,365.58658 C 440.3687,369.94154 449.16373,368.0088 451.1303,362.10909 C 451.46938,361.09185 453.16518,361.05562 459.45993,361.93114 C 463.80706,362.53577 467.56752,363.23419 467.8165,363.48317 C 468.06549,363.73216 467.70872,365.28899 467.02369,366.94281 C 465.25608,371.2102 457.89767,377.65706 453.3547,378.91851 C 447.98919,380.40835 434.41594,380.14278 428.88603,378.43975 z M 489.23888,378.71883 C 484.02638,376.74258 479.40304,372.46402 476.90584,367.30549 C 472.02853,357.23032 474.81445,343.30232 483,336.83821 C 487.92103,332.95208 497.61817,330.64761 505.35844,331.52485 C 519.85876,333.16824 526.79046,339.96636 528.53013,354.25 L 529.23045,360 L 511.11522,360 C 493.83986,360 493,360.09014 493,361.94424 C 493,363.01357 494.07724,365.14084 495.39387,366.67151 C 498.45674,370.23232 504.66858,370.56398 508.19363,367.35491 C 510.32694,365.41283 511.09502,365.32174 518.43,366.14098 C 522.7915,366.62811 526.56675,367.23342 526.81945,367.48612 C 527.84736,368.51402 521.60483,375.16447 517.69207,377.20993 C 514.29758,378.98445 511.50227,379.45409 503,379.67832 C 496.4211,379.85182 491.28217,379.49351 489.23888,378.71883 z M 509.62199,348.75 C 508.28227,341.81689 501.04974,339.79641 495.92308,344.92308 C 494.31538,346.53077 493,348.78077 493,349.92308 C 493,351.86511 493.56019,352 501.625,352 L 510.25,352 L 509.62199,348.75 z M 544.6838,378.55119 C 542.5849,377.80262 539.95133,376.36094 538.83142,375.34744 C 536.72068,373.43724 534,368.81514 534,367.13943 C 534,366.61149 537.83051,365.86046 542.51224,365.47047 C 550.88013,364.77343 551.05942,364.80582 553.08482,367.3807 C 554.78844,369.5465 555.96365,370 559.87258,370 C 564.89139,370 567,368.75013 567,365.77525 C 567,363.60632 564.40332,362.5024 555.84681,361.03372 C 541.36451,358.5479 536,354.48435 536,346 C 536,340.42968 539.23731,335.62858 544.45331,333.4633 C 549.28871,331.45601 559.95435,330.70617 566.52457,331.91158 C 573.23034,333.14187 576.42829,335.10879 579.81461,340.0857 L 582.12922,343.48751 L 578.81461,344.13365 C 576.99157,344.48903 573.11893,344.99007 570.20874,345.24707 C 565.82374,345.63431 564.7512,345.40363 563.94659,343.9002 C 561.779,339.85003 552,340.74622 552,344.99504 C 552,347.15901 554.83978,348.1282 566.73215,350.02298 C 575.2128,351.37417 579.78624,354.07136 582.30576,359.20752 C 585.89685,366.52814 581.29934,375.34706 572.29182,378.41624 C 566.47697,380.39755 550.08551,380.47768 544.6838,378.55119 z M 601.11962,378.84743 C 595.04277,377.09975 591.29616,373.68787 589.61505,368.3707 C 588.97478,366.34557 589.36146,366.20644 597.51932,365.5269 C 605.88737,364.82984 606.15549,364.87573 608.50065,367.4062 C 611.62939,370.78217 618.70558,371.08779 621.52817,367.96887 C 623.19956,366.12201 623.22369,365.79512 621.79418,364.36561 C 620.92951,363.50094 615.82586,361.91467 610.45273,360.84056 C 598.87124,358.52538 595.57564,356.99203 592.95952,352.70145 C 588.69394,345.70567 591.67879,337.3951 599.77667,333.7208 C 606.57135,330.63781 622.63084,330.6768 628.64923,333.79089 C 632.33339,335.69719 637.9335,342.39983 636.79407,343.53927 C 636.55533,343.778 632.7915,344.35896 628.43,344.83029 C 621.39722,345.59028 620.35843,345.48761 619.24876,343.9228 C 616.75306,340.40349 607,340.74588 607,344.3528 C 607,346.83148 609.36061,347.84282 618.62834,349.33463 C 632.13793,351.50925 637.68244,355.21352 638.69181,362.73896 C 639.60624,369.55653 634.04958,376.78121 626.21895,378.95599 C 621.62399,380.23214 605.69478,380.16324 601.11962,378.84743 z M 685.5,378.55059 C 680.9491,376.88143 675,370.97097 675,368.11877 C 675,366.45391 676.04394,366.11575 683.11628,365.48971 C 691.00727,364.79119 691.29986,364.84382 693.65675,367.38563 C 697.84863,371.90638 708.79651,370.40075 707.84827,365.4339 C 707.57537,364.00446 706.0471,363.17236 701.98953,362.24396 C 698.97029,361.55313 693.60002,360.31189 690.0556,359.48564 C 682.98606,357.83764 679.50161,355.28355 677.31442,350.14641 C 674.59568,343.76079 677.54158,337.36851 684.82892,333.84077 C 688.74224,331.94636 691.10095,331.59002 699.49608,331.62493 C 711.15191,331.6734 715.45255,333.10463 719.36818,338.23829 C 722.86208,342.81903 722.69834,343.71942 718.25,344.38687 C 710.05256,345.61684 706.13287,345.43022 704.24307,343.71998 C 701.14301,340.91446 696.77762,340.54632 693.96263,342.85301 C 691.7724,344.64777 691.66592,345.03776 693,346.37885 C 693.82624,347.20943 698.60974,348.54344 703.64956,349.34878 C 708.68181,350.15291 714.47244,351.60488 716.51762,352.57538 C 726.84365,357.47541 726.42536,371.59649 715.78923,377.1649 C 712.2502,379.01771 709.57605,379.46357 700.5,379.71408 C 692.66417,379.93035 688.34939,379.59567 685.5,378.55059 z M 798.25623,378.40631 C 790.41434,374.41721 788.59887,363.4281 794.85783,357.83572 C 798.05208,354.98166 799.50322,354.47252 814.99724,350.76969 C 824.97449,348.38528 826.74781,346.89067 823.47852,343.62138 C 820.79464,340.9375 814.38854,341.51606 811.20455,344.72988 C 809.71705,346.23131 808.05,347.39219 807.5,347.3096 C 806.95,347.22701 803.4625,346.86275 799.75,346.50012 C 792.12795,345.75563 791.55975,344.87458 795.03041,339.18197 C 798.4011,333.65334 804.47495,331.60529 817.5,331.60541 C 830.09333,331.60553 834.85998,332.85646 838.42884,337.09781 C 842.13273,341.49963 842.98826,346.03771 842.99442,361.31574 C 842.99749,368.91518 843.46577,376.00179 844.03518,377.06574 C 845.02115,378.90804 844.66355,379 836.51374,379 C 828.42352,379 827.89679,378.86759 826.85027,376.57071 L 825.74341,374.14143 L 821.69618,376.82071 C 818.28379,379.07974 816.38241,379.54364 809.57448,379.77819 C 803.61037,379.98367 800.6522,379.62511 798.25623,378.40631 z M 822.07692,367.07692 C 824.20142,364.95243 825,363.19136 825,360.63082 L 825,357.1078 L 819.83192,358.64256 C 811.19277,361.20811 810.08046,361.83125 809.41626,364.47762 C 808.5106,368.08608 810.51488,370 815.19937,370 C 818.23677,370 819.83173,369.32212 822.07692,367.07692 z M 867.99353,379.06566 C 856.90208,375.69179 851.59649,368.22603 851.60179,356 C 851.608,341.705 859.26539,333.33946 874.01747,331.51139 C 880.81949,330.66848 891.34049,332.45132 895.81732,335.20549 C 899.56108,337.50868 904.42199,344.22925 903.76968,346.2002 C 903.51386,346.97316 900.33211,347.92157 895.91975,348.54009 L 888.5,349.58017 L 886,346.78311 C 880.66527,340.81448 872.12786,343.09775 869.98195,351.06702 C 867.50416,360.26885 871.53923,368 878.81969,368 C 883.06684,368 888,364.94449 888,362.31388 C 888,361.05083 888.85667,360.89033 892.75,361.42395 C 895.3625,361.78201 899.38168,362.32958 901.68151,362.64076 C 905.76158,363.19282 905.83589,363.27075 904.74472,365.85327 C 902.54639,371.05619 898.97548,374.83332 893.83162,377.39662 C 889.30127,379.65418 887.40469,379.98858 879.55366,379.91405 C 874.57415,379.86677 869.37209,379.485 867.99353,379.06566 z M 923.87963,377.20578 C 919.98548,375.17145 917.71083,373.08516 915.51544,369.5342 C 912.76935,365.0925 912.5,363.88359 912.5,356 C 912.5,348.10514 912.76699,346.91131 915.53331,342.4369 C 917.84532,338.69731 919.95203,336.82211 924.39277,334.55103 C 929.54816,331.91447 931.21371,331.57441 938.85946,331.59735 C 948.92306,331.62753 955.1586,333.86502 960.03992,339.19749 C 963.38352,342.85012 966,350.30612 966,356.1815 L 966,360 L 948,360 C 937.50226,360 930,360.38966 930,360.9349 C 930,363.67177 932.28102,367.09396 935.06474,368.53348 C 938.62706,370.37563 942.39078,369.84469 945.5,367.0614 C 947.26394,365.48236 948.49201,365.3717 955.90491,366.12377 C 960.5276,366.59276 964.51332,367.17998 964.76205,367.42871 C 965.01078,367.67745 963.02857,370.05769 960.35714,372.71815 C 954.42318,378.62776 950.2568,380 938.24817,380 C 930.31661,380 928.58306,379.66288 923.87963,377.20578 z M 947.25168,351.41499 C 948.284,350.38267 945.86414,345.01825 943.67422,343.48437 C 938.94007,340.16844 931.83629,343.26077 930.42924,349.25 L 929.78318,352 L 938.22493,352 C 942.86788,352 946.92992,351.73674 947.25168,351.41499 z M 1017.8851,378.62038 C 1012.2764,376.61607 1008.2592,373.29708 1005.2539,368.18465 C 1002.9099,364.19732 1002.5,362.38362 1002.5,356 C 1002.5,349.84283 1002.9476,347.71031 1005,344.08939 C 1008.4833,337.944 1013.3921,334.35702 1020.9633,332.42466 C 1028.398,330.52715 1037.3817,331.45266 1043.8273,334.78013 C 1051.6372,338.81189 1057.0869,350.51751 1055.4223,359.68526 C 1053.8669,368.25109 1047.7382,375.7698 1040.1205,378.45747 C 1034.8407,380.32031 1022.887,380.40789 1017.8851,378.62038 z M 1035.3834,364.69899 C 1038.1209,361.01839 1038.2847,351.60962 1035.6804,347.63505 C 1032.9185,343.41976 1029.6373,342.32565 1025.5719,344.26433 C 1021.4319,346.23853 1019.5634,351.10466 1020.2403,358.14921 C 1020.8906,364.91707 1023.9988,368.20221 1029.3683,367.79683 C 1032.3126,367.57455 1033.8233,366.79656 1035.3834,364.69899 z M 974,370 L 974,361 L 983.5,361 L 993,361 L 993,370 L 993,379 L 983.5,379 L 974,379 L 974,370 z M 1065,355.5 L 1065,332 L 1073,332 L 1081,332 L 1081.0111,335.75 L 1081.0222,339.5 L 1083.527,336.32231 C 1086.8669,332.08515 1091.6122,330.54921 1096.9349,331.98247 C 1099.1707,332.58451 1101,333.49928 1101,334.0153 C 1101,334.53132 1099.9875,337.47376 1098.75,340.55406 C 1096.5449,346.0428 1096.4323,346.14389 1093.1094,345.61736 C 1085.2312,344.36903 1083,348.97084 1083,366.46788 L 1083,379 L 1074,379 L 1065,379 L 1065,355.5 z M 255.87533,369.5 C 255.53176,368.95 242.81328,346.3375 227.61204,319.25 L 199.97342,270 L 227.59928,220.75 C 242.79351,193.6625 255.62449,171.0725 256.11257,170.55 C 256.63065,169.99539 257,181.12885 257,197.3 L 257,225 L 274.58156,225 L 292.16312,225 L 290.17191,221.75 C 280.30114,205.63923 252.0188,155.40131 252.34992,154.56682 C 252.58275,153.98007 258.78676,150.06414 266.13662,145.86476 C 273.48648,141.66539 290.79624,131.71154 304.60276,123.74511 L 329.70553,109.26069 L 350.9896,146.19235 C 362.69584,166.50476 373.32641,185.68361 374.6131,188.81201 C 377.65401,196.20555 377.88334,208.45824 375.09569,214.59641 C 372.51121,220.28723 328.34855,296.75413 325.32533,300.77295 C 316.06731,313.07981 309.7429,315 278.4666,315 L 257.03164,315 L 256.76582,342.75 C 256.61962,358.0125 256.2189,370.05 255.87533,369.5 z M 273.2821,303.80031 C 305.93342,303.40876 306.92166,303.1877 314.74826,294.52467 C 317.53031,291.44528 325.82141,278.23424 334.75,262.65384 C 343.1375,248.01766 350.00013,235.92051 350.0003,235.7713 C 350.00046,235.62208 326.39031,235.6241 297.53329,235.77577 L 245.06598,236.05155 L 244.78299,225.13663 L 244.5,214.22171 L 229.25,241.46754 C 220.8625,256.45274 214,269.30886 214,270.0367 C 214,270.76453 220.8625,283.60206 229.25,298.56455 L 244.5,325.76906 L 244.7821,314.95388 L 245.06421,304.13869 L 273.2821,303.80031 z M 349.05601,222.64178 C 355.55671,220.21959 360.88937,215.43337 363.61923,209.57086 C 366.71462,202.92335 366.60932,198.79079 363.15877,191.5 C 361.1154,187.18248 327.03215,127.13549 325.57604,125.28771 C 325.16454,124.76552 268.49966,158.00101 268.18329,158.95012 C 267.98802,159.53593 276.27934,174.6762 286.60843,192.59518 L 305.3886,225.17514 L 324.9443,224.75725 C 340.09214,224.43356 345.52692,223.95673 349.05601,222.64178 z M 644,355.5 L 644,348 L 657,348 L 670,348 L 670,355.5 L 670,363 L 657,363 L 644,363 L 644,355.5 z M 448.46589,317.00667 C 431.39969,315.22226 418.7568,310.27924 409.376,301.72359 C 398.34026,291.65856 393.32816,281.04285 390.38487,261.5 C 388.12845,246.5178 388.87858,148.4177 391.31981,139.23084 C 394.74996,126.32252 401.73845,116.66152 413.3628,108.75831 C 426.0079,100.1611 437.70604,96.397522 455,95.362613 C 494.16745,93.018745 524.10108,110.91045 531.35341,141 C 533.13299,148.38337 535,165.33324 535,174.10595 L 535,180 L 504,180 L 473,180 L 472.94356,161.75 C 472.88185,141.79642 472.13782,137.90158 467.76906,134.66264 C 465.48763,132.97122 464.41936,132.7912 461.27894,133.56898 C 454.31459,135.29381 454.53447,133.18258 454.21303,201.41344 C 453.90313,267.19421 454.13271,270.87859 458.87204,276.18281 C 464.09872,282.03249 472.57038,279.36381 475.08902,271.07426 C 475.6863,269.10842 476.42007,257.9375 476.71961,246.25 L 477.26423,225 L 506.13212,225 L 535,225 L 534.99757,232.75 C 534.99297,247.42624 533.02404,266.98919 530.9122,273.34141 C 523.83025,294.64334 505.61024,311.17676 484.5,315.45733 C 475.26279,317.33037 458.46816,318.05249 448.46589,317.00667 z M 473.02623,305.96607 C 492.59786,303.57804 504.78353,296.64598 513.83713,282.74999 C 519.75348,273.66923 521.89576,266.52241 523.1339,251.73531 C 523.72174,244.71473 523.94622,238.30223 523.63274,237.48531 C 523.1586,236.24972 520.11529,236 505.53138,236 L 488,236 L 487.9918,246.25 C 487.98144,259.19055 486.41454,273.07182 484.42716,277.82948 C 482.77924,281.77449 478.73608,286.49905 475.5,288.26114 C 471.91778,290.21171 465.60314,290.86898 460.61101,289.81089 C 454.14989,288.44144 447.99899,282.4224 445.38342,274.90974 C 443.61253,269.82321 443.5,265.55676 443.5,203.5 L 443.5,137.5 L 445.87115,132.68402 C 452.98633,118.23255 473.50807,118.63376 481.25496,133.37579 C 483.14757,136.97737 483.4721,139.49589 483.81588,153.25 L 484.20956,169 L 504.17673,169 L 524.14391,169 L 523.52221,163.25 C 522.31741,152.10709 520.7291,143.52571 518.87292,138.13064 C 511.85938,117.74544 486.07834,104.60208 456.5,106.33249 C 437.20452,107.46133 423.84356,112.94738 412.46733,124.41242 C 400.30623,136.66846 399.74857,140.51627 400.25577,208.67227 C 400.62251,257.95438 400.74797,260.90615 402.81017,268.76914 C 405.60377,279.42094 408.05941,284.12518 414.23424,290.65416 C 420.38936,297.16229 425.3292,300.13158 434.77315,302.99988 C 446.52296,306.56851 459.70902,307.59097 473.02623,305.96607 z M 612.29664,316.99312 C 591.94581,314.87556 576.75312,307.72776 567.14336,295.74957 C 554.30157,279.74276 551.41542,259.49191 552.28575,191.5 C 552.66716,161.70384 553.1644,150.44164 554.39273,143.77797 C 557.168,128.72216 562.19419,120.21594 573.5,111.44119 C 586.40077,101.42856 600.63645,96.38986 619,95.336541 C 645.23108,93.831947 667.52666,101.38737 682.17552,116.74517 C 688.77559,123.66465 692.42827,130.44464 695.02412,140.5943 C 696.82542,147.63732 698.96754,166.62772 698.98968,175.75 L 699,180 L 668.09043,180 L 637.18086,180 L 636.84043,160.20361 C 636.47664,139.04906 635.93096,136.63897 630.8947,133.94365 C 627.69321,132.23026 622.2688,133.66027 620.24243,136.75185 C 618.64075,139.1955 618.47744,144.45385 618.22075,201.8486 C 617.91638,269.90538 618.05528,271.88495 623.49339,276.99379 C 626.77109,280.07303 632.21895,280.08239 635.48468,277.01439 C 639.07075,273.64546 640.13983,267.18683 640.74259,245.25 L 641.299,225 L 670.28358,225 L 699.26815,225 L 698.56522,240.75 C 697.6672,260.87098 696.54711,268.84231 693.58867,276.16668 C 685.2232,296.87749 670.22439,310.17949 649.87423,314.93572 C 639.85569,317.27725 623.58738,318.16795 612.29664,316.99312 z M 647.52559,303.99346 C 663.10945,300.00777 673.82744,291.28678 680.88944,276.84602 C 685.35325,267.71816 686.64809,261.36331 687.17449,246 L 687.5,236.5 L 669.92173,236.22762 L 652.34346,235.95525 L 651.24894,254.22762 C 650.01507,274.82638 649.19137,278.57351 644.797,283.57842 C 640.38826,288.5997 636.60436,290.25 629.5,290.25 C 620.02943,290.25 614.29381,286.24597 609.80361,276.5 L 607.5,271.5 L 607.21459,207.57907 C 606.91484,140.4487 607.14697,136.04547 611.31149,129.86574 C 617.56126,120.59172 633.34495,119.48664 641.27687,127.76775 C 646.21731,132.92569 647.29995,137.24442 647.79021,153.75 L 648.24318,169 L 667.9748,169 L 687.70641,169 L 687.28181,163.75 C 686.35979,152.3498 683.80637,140.23105 681.11883,134.5 C 674.72533,120.86616 659.67309,110.87147 640.49769,107.52756 C 614.6684,103.02331 590.08495,109.64405 574.90269,125.19342 C 565.21446,135.11591 563.99324,142.15253 563.30828,192 C 562.36564,260.60005 565.14997,278.17773 579.14039,291.94921 C 587.03722,299.72246 599.69344,304.74577 615.5,306.38049 C 623.19632,307.17645 639.96798,305.92637 647.52559,303.99346 z M 779.68732,316.96479 C 752.70849,313.92159 733.57831,302.52186 724.2624,283.93693 C 716.98539,269.41952 715.58961,253.92823 716.27422,195.27877 C 716.70718,158.18779 716.98864,152.47321 718.78262,144.34899 C 724.2292,119.68372 738.8724,104.82905 764.62184,97.84778 C 771.01142,96.115419 775.52321,95.691818 788.5,95.605915 C 807.93562,95.477257 816.21434,97.095634 830,103.71859 C 846.57343,111.68086 857.14025,124.40666 861.95357,142.20082 C 865.09895,153.82885 866,164.74517 866,191.22377 L 866,216 L 823.94288,216 L 781.88576,216 L 782.19288,244.42892 C 782.48373,271.35157 782.60956,273.00447 784.56773,275.62509 C 789.00581,281.56458 798.04686,280.42885 801.48459,273.5 C 803.14854,270.14628 803.529,266.95529 803.83937,253.75 L 804.20956,238 L 835.25317,238 L 866.29679,238 L 865.70713,251.75 C 865.38281,259.3125 864.39691,268.2 863.51622,271.5 C 861.19533,280.1966 854.4678,291.37098 846.93784,299.03659 C 839.21115,306.90247 827.56157,313.17034 816.5,315.41318 C 807.17735,317.30344 789.35066,318.05482 779.68732,316.96479 z M 804.5,305.97004 C 824.1064,303.76203 835.29733,297.62219 845.06414,283.71475 C 850.73854,275.6347 853.60296,267.46114 854.59438,256.52039 L 855.27978,248.95679 L 835.38989,249.22839 L 815.5,249.5 L 814.91037,260 C 813.96924,276.75965 811.15332,283.4404 803.17348,287.84579 C 797.88978,290.76273 787.18246,291.17995 782.30723,288.65887 C 777.61891,286.23445 773.22939,280.29684 772.04596,274.77869 C 771.4397,271.9518 771,256.25996 771,237.45078 L 771,205 L 813.12289,205 L 855.24579,205 L 854.72399,180.75 C 854.28912,160.5405 853.84873,155.10075 852.08089,148.10208 C 849.22422,136.79288 844.90191,129.05044 837.74714,122.42638 C 826.73389,112.23005 812.92644,107.26329 793,106.33009 C 778.76326,105.66336 765.74653,108.05844 754.68082,113.38083 C 745.15331,117.96338 736.20726,127.16916 733.00791,135.68297 C 728.22976,148.39813 727.79341,153.11162 727.28923,197.45748 C 726.76952,243.16827 727.7053,261.18473 731.13199,271.44243 C 737.74528,291.23907 754.49044,302.83249 781,305.96827 C 790.53504,307.09616 794.49776,307.09646 804.5,305.97004 z M 771,164.04922 C 771,151.45318 771.48373,139.84008 772.13506,136.79922 C 775.26499,122.18666 794.09207,117.05268 805.27351,127.76266 C 810.08706,132.37325 811.13772,138.14579 811.73258,163.25 L 812.27165,186 L 791.63583,186 L 771,186 L 771,164.04922 z M 800.96728,163.25 C 800.91737,145.32516 799.72825,138.02316 796.39176,135.15324 C 793.11131,132.33152 787.85164,132.70514 784.55978,135.99373 C 782.65555,137.89608 782.47512,139.44659 782.17058,156.52573 L 781.84116,175 L 791.42058,175 L 801,175 L 800.96728,163.25 z M 944.22024,316.92739 C 925.97913,315.16472 909.41565,308.88835 899.79088,300.09185 C 893.56882,294.40524 889.82198,288.03861 887.58099,279.34479 C 885.95207,273.0255 884.04397,253.9749 884.01583,243.75 L 884,238 L 912.845,238 L 941.69001,238 L 942.3198,253.25 C 943.24172,275.57359 944.84377,279.33333 953.43407,279.33333 C 958.58304,279.33333 962.62374,277.02972 964.19642,273.1977 C 965.93449,268.96268 965.60059,250.20629 963.70811,245.76759 C 961.85891,241.43042 957.20367,238.20939 931.95793,223.79913 C 896.95392,203.81886 889.67773,196.78973 884.97815,178.41456 C 882.56975,168.9978 882.31711,147.72304 884.47024,135.64229 C 888.07452,115.41934 900.27487,103.90173 924.54044,97.814422 C 932.15318,95.904675 936.13064,95.570248 951,95.589687 C 971.60596,95.616624 981.33456,97.509694 994.64063,104.08163 C 1003.6697,108.54116 1013.0626,117.28203 1016.8922,124.78863 C 1019.6215,130.13864 1020.9296,140.07246 1020.9691,155.75 L 1021,168 L 992.1112,168 L 963.22241,168 L 962.85245,153.69266 C 962.42836,137.29167 961.4405,134.54847 955.56124,133.44551 C 951.00578,132.5909 947.09567,133.99143 944.56085,137.38564 C 942.96298,139.52522 942.42269,141.99207 942.15586,148.36613 C 941.3908,166.64249 944.45598,169.888 980.01669,188.45436 C 1014.0961,206.2473 1021.7738,214.5234 1025.0618,237.01005 C 1026.5064,246.88973 1025.7625,267.24129 1023.5936,277.17367 C 1020.3725,291.92544 1011.9268,302.85728 998.77067,309.30401 C 989.93861,313.63185 982.24497,315.675 969.87344,316.97806 C 959.38087,318.08322 956.11467,318.07676 944.22024,316.92739 z M 980.88758,303.90922 C 990.93838,301.34969 997.97727,297.81744 1003.2401,292.69231 C 1011.8059,284.35071 1014.4422,274.7629 1014.4293,252 C 1014.4211,237.54564 1014.1508,234.77416 1012.2489,229.64544 C 1007.8167,217.69323 1000.9066,212.01634 973.04107,197.43467 C 962.84348,192.09841 952.0244,186.05182 948.99867,183.9978 C 942.16486,179.35866 935.34011,172.0524 933.2982,167.18961 C 931.29485,162.41866 930.38182,143.90198 931.87883,138.40412 C 935.18051,126.27845 947.24779,119.56619 959.7118,122.9224 C 969.15514,125.46522 972.89063,131.9405 973.74605,147.25 L 974.29083,157 L 992.29522,157 L 1010.2996,157 L 1009.7169,145.95434 C 1009.0123,132.59743 1007.3183,128.48271 999.46763,121.05783 C 993.29386,115.21893 986.90285,111.97511 975.41033,108.84732 C 963.81805,105.69237 938.00511,105.68771 926.5,108.83848 C 909.18309,113.58087 900.61458,120.23216 896.88903,131.82393 C 893.9187,141.06588 893.09297,164.47659 895.39184,174.27132 C 899.17075,190.37197 904.62159,195.39072 940.51472,215.81721 C 962.46083,228.30658 969.972,233.61358 972.69887,238.55685 C 977.2153,246.74426 977.7771,271.76048 973.62383,279.74393 C 967.65949,291.20863 948.86619,294.102 938.64359,285.12941 C 934.00004,281.05367 931.20709,268.98645 931.03368,252.25 L 931,249 L 913.55902,249 C 903.96648,249 895.87284,249.39673 895.57317,249.88161 C 894.55522,251.52869 897.02025,271.85488 899.02513,278.34594 C 903.68946,293.44728 919.73882,303.12358 944.86678,305.98428 C 955.36379,307.17932 971.75428,306.23511 980.88758,303.90922 z M 1099.5,316.93592 C 1074.1833,314.36761 1054.4055,303.71637 1047.0175,288.6717 C 1043.075,280.64345 1041.1523,270.19563 1040.3441,252.40897 L 1039.6894,238 L 1068.6953,238 L 1097.7013,238 L 1098.2492,253.78938 C 1098.9915,275.18026 1100.8166,279.33333 1109.4744,279.33333 C 1114.603,279.33333 1118.662,276.99731 1120.1354,273.1977 C 1121.5478,269.55567 1121.4938,252.53528 1120.0529,247.19103 C 1118.6128,241.84956 1116.5646,240.3354 1090.5867,225.40779 C 1045.5615,199.53507 1040.3354,192.97261 1039.2833,160.98509 C 1038.2949,130.9349 1043.0981,117.10997 1057.979,107.17285 C 1070.9078,98.539359 1083.2635,95.627142 1107,95.61875 C 1127.218,95.611603 1136.9644,97.44152 1149.9596,103.68455 C 1158.759,107.91191 1169.3437,117.81723 1172.8199,125.07767 C 1175.5608,130.80242 1176.9293,141.0836 1176.9691,156.25 L 1177,168 L 1148.1135,168 L 1119.227,168 L 1118.8218,154.25 C 1118.5477,144.9507 1117.9445,139.54055 1116.9583,137.53586 C 1114.1443,131.81605 1104.8033,131.70109 1100.6018,137.33456 C 1098.7734,139.78611 1098.5,141.54091 1098.5,150.82632 C 1098.5,160.27808 1098.7679,161.93087 1100.84,165.26373 C 1104.1524,170.59138 1112.7888,176.38696 1133.5749,187.23104 C 1154.8827,198.34723 1161.7199,202.6953 1168.5614,209.48035 C 1178.3908,219.22858 1181.5179,229.6598 1181.4581,252.5 C 1181.3816,281.68661 1175.9759,295.35227 1160.2187,306.19353 C 1147.2994,315.08222 1123.2205,319.34229 1099.5,316.93592 z M 1136.5234,303.99401 C 1162.2572,297.41242 1170.2909,285.21309 1170.4343,252.5 C 1170.5658,222.49117 1166.4193,216.98236 1128.9916,197.44126 C 1107.4582,186.19861 1101.9278,182.74715 1096.169,176.95713 C 1088.488,169.23456 1087.5624,166.45385 1087.5291,151 C 1087.502,138.42621 1087.6715,137.19431 1090,133.0444 C 1091.375,130.59383 1094.4513,127.21883 1096.8361,125.5444 C 1100.7623,122.78783 1101.9038,122.5 1108.9092,122.5 C 1115.7236,122.5 1117.1546,122.83653 1120.9114,125.32267 C 1126.7849,129.20957 1128.8068,134.20564 1129.6378,146.88495 L 1130.3036,157.04491 L 1147.9018,156.77246 L 1165.5,156.5 L 1165.3316,146.90973 C 1165.097,133.55362 1163.9645,130.15581 1157.376,123.03937 C 1151.0029,116.15565 1143.6973,112.14826 1131.5,108.84537 C 1124.7769,107.02483 1120.7866,106.67757 1106.5,106.66975 C 1090.8838,106.6612 1088.7801,106.87962 1080.6563,109.353 C 1070.1704,112.54553 1066.8997,114.11551 1061.3181,118.63568 C 1052.6775,125.63307 1049.5122,137.5177 1050.2235,160.29274 C 1051.0679,187.33349 1054.8117,191.90907 1095,215.01811 C 1131.2228,235.84692 1131.2841,235.9187 1131.8449,258.20623 C 1132.1137,268.8896 1131.8322,272.98923 1130.5682,276.79475 C 1128.0924,284.24856 1122.5085,288.72847 1114,290.0872 C 1104.0572,291.67497 1094.9135,287.67108 1091.0104,280.02045 C 1089.0455,276.16886 1087.024,262.88787 1087.0082,253.72693 L 1087,248.95385 L 1069.25,249.22693 L 1051.5,249.5 L 1051.7939,257.5 C 1052.4434,275.18283 1055.5216,284.40805 1063.1545,291.54778 C 1071.0002,298.88647 1083.9662,303.92441 1100.2469,305.96 C 1110.2328,307.20856 1127.6441,306.26496 1136.5234,303.99401 z M 95.734467,313.91195 C 89.979549,312.55611 84.306326,309.32164 80.208735,305.0603 C 78.168931,302.93898 66.314006,283.4951 53.864458,261.85168 C 23.336257,208.77868 25.520308,213.35022 25.509208,202.5 C 25.498347,191.88446 26.624757,189.08109 40.677512,164.74955 C 48.989383,150.35803 49.27137,149.67132 47.425923,148.31538 C 46.366665,147.53709 35.936277,141.41024 24.247282,134.70016 L 2.9945639,122.5 L 25.247282,122.18108 C 37.486277,122.00567 63.256959,122.1683 82.515464,122.54247 L 117.53093,123.22279 L 146.66668,172.36139 C 162.69135,199.38763 175.67995,221.62944 175.53025,221.78764 C 175.38054,221.94584 164.82095,215.98334 152.06449,208.53764 C 139.30802,201.09194 128.56246,195.00333 128.18546,195.0074 C 127.5926,195.0138 112.07596,221.50414 111.16667,224.06224 C 110.96277,224.63587 126.39772,225 150.91667,225 L 191,225 L 191,270 L 191,315 L 145.25,314.89955 C 120.0875,314.8443 97.80551,314.39988 95.734467,313.91195 z M 180,269.98812 L 180,235.97623 L 141.8598,236.23812 L 103.7196,236.5 L 94.917785,252 C 82.558233,273.76518 80.769384,281.74714 85.967577,291.93645 C 88.323041,296.55354 94.10606,301.76604 97.76834,302.57302 C 99.270753,302.90408 100.95,303.32505 101.5,303.50852 C 102.05,303.69199 119.9375,303.87763 141.25,303.92105 L 180,304 L 180,269.98812 z M 76.800416,259.69271 C 77.323032,259.03672 87.981985,240.725 100.48698,219 C 112.99197,197.275 123.3777,179.33288 123.56638,179.12862 C 123.75506,178.92436 128.20481,181.27201 133.45471,184.34563 C 138.70462,187.41924 143,189.70199 143,189.41841 C 143,189.13483 135.71404,176.59135 126.80898,161.54401 L 110.61796,134.18522 L 78.558982,133.81077 C 60.926542,133.60482 46.361307,133.51434 46.191794,133.6097 C 46.022281,133.70506 49.951029,136.1107 54.922345,138.95556 C 59.893661,141.80043 64.182882,144.48689 64.453947,144.92548 C 64.725012,145.36408 59.424294,155.34777 52.674573,167.11146 C 45.924852,178.87516 39.636824,190.42161 38.701176,192.77024 C 36.540428,198.19407 36.526995,205.74885 38.668353,211.22976 C 40.181648,215.10312 68.868908,265.70142 71.314179,268.81014 C 72.095102,269.80294 72.769261,269.00186 74.09746,265.50285 C 75.06147,262.96326 76.2778,260.3487 76.800416,259.69271 z M 172,170.5 L 172,145 L 179,145 L 186,145 L 186,170.5 L 186,196 L 179,196 L 172,196 L 172,170.5 z M 210,175.5 L 210,155 L 202.5,155 L 195,155 L 195,150 L 195,145 L 217.5,145 L 240,145 L 240,150 L 240,155 L 232,155 L 224,155 L 224,175.5 L 224,196 L 217,196 L 210,196 L 210,175.5 z M 121.50425,115.47037 C 100.12962,103.0977 82.545237,92.867826 82.427851,92.737307 C 82.024103,92.288391 122.02129,23.493916 126.56137,16.828422 C 131.54047,9.5183735 135.54867,6.0204954 142.76666,2.686398 C 147.39522,0.5484 148.57035,0.4931093 195.85146,0.18872284 C 246.67508,-0.13846966 254.83469,0.3445291 262.23131,4.1180055 C 269.19804,7.6721648 275.07616,15.047535 286.29905,34.316164 L 297.07515,52.81769 L 320.28757,39.312308 C 333.05441,31.884348 343.89164,25.565348 344.37032,25.270085 C 345.40661,24.630864 346.42444,22.878039 312.88032,79.5 L 286.22132,124.5 L 232.36066,125.25319 C 202.7373,125.66745 176.76842,125.89245 174.65204,125.75319 C 171.00762,125.51339 172.05233,124.78821 194.40204,112.04377 C 207.38092,104.64284 218,98.21389 218,97.757215 C 218,97.300539 214.21093,90.379342 209.57984,82.376776 C 201.36114,68.174776 201.12417,67.882563 199.67527,70.163328 C 198.85884,71.448498 189.7704,87.125 179.47873,105 C 169.18707,122.875 160.67675,137.60488 160.56691,137.73306 C 160.45708,137.86124 142.87888,127.84303 121.50425,115.47037 z M 175,89.803227 C 185.175,72.116143 193.62045,57.162292 193.76767,56.572446 C 194.14248,55.070718 177.91989,27.593811 173.62463,22.455308 C 168.86027,16.755607 161.17331,13 154.27154,13 C 147.19265,13 143.14432,14.838059 138.58082,20.12404 C 132.55235,27.10692 97.692674,88.241015 99.224972,89.143159 C 116.28563,99.187662 155.63233,121.91192 156,121.93296 C 156.275,121.94869 164.825,107.49031 175,89.803227 z M 270.70956,113.35997 L 279.72636,112.71994 L 295.81043,85.640551 C 304.65667,70.746888 311.75377,58.420437 311.58177,58.248439 C 311.40977,58.07644 307.34802,60.200179 302.55566,62.967857 C 297.76329,65.735536 293.52732,68 293.14239,68 C 292.75745,68 286.83044,58.275913 279.97125,46.390917 C 265.33445,21.029568 262.09345,16.926959 254.43007,14.059719 C 249.2681,12.128381 246.80517,12 214.91536,12 L 180.90575,12 L 183.84223,15.75 C 185.4573,17.8125 197.49389,38.139904 210.59022,60.92201 C 229.73199,94.220649 234.11719,102.51982 232.95086,103.24043 C 232.15289,103.73346 227.675,106.3463 223,109.04675 L 214.5,113.95666 L 238.09638,113.97833 C 251.07438,113.99025 265.75031,113.71199 270.70956,113.35997 z "
     style="fill:white"
     id="path1962" />
</svg>
